<mxfile host="app.diagrams.net" agent="Mozilla/5.0 (X11; CrOS x86_64 14541.0.0) AppleWebKit/537.36 (KHTML, like Gecko) Chrome/127.0.0.0 Safari/537.36" version="24.7.8">
  <diagram name="Page-1" id="6Sz7c2alAstOppHwxdU5">
    <mxGraphModel dx="880" dy="460" grid="1" gridSize="10" guides="1" tooltips="1" connect="1" arrows="1" fold="1" page="1" pageScale="1" pageWidth="827" pageHeight="1169" math="0" shadow="0">
      <root>
        <mxCell id="0" />
        <mxCell id="1" parent="0" />
        <mxCell id="ZRRWpvvnsxJGegvw8pxf-3" value="" style="edgeStyle=orthogonalEdgeStyle;rounded=0;orthogonalLoop=1;jettySize=auto;html=1;" edge="1" parent="1" source="ZRRWpvvnsxJGegvw8pxf-1" target="ZRRWpvvnsxJGegvw8pxf-2">
          <mxGeometry relative="1" as="geometry" />
        </mxCell>
        <mxCell id="ZRRWpvvnsxJGegvw8pxf-1" value="User" style="rounded=1;whiteSpace=wrap;html=1;" vertex="1" parent="1">
          <mxGeometry x="70" y="140" width="120" height="60" as="geometry" />
        </mxCell>
        <mxCell id="ZRRWpvvnsxJGegvw8pxf-5" value="" style="edgeStyle=orthogonalEdgeStyle;rounded=0;orthogonalLoop=1;jettySize=auto;html=1;" edge="1" parent="1" source="ZRRWpvvnsxJGegvw8pxf-2" target="ZRRWpvvnsxJGegvw8pxf-4">
          <mxGeometry relative="1" as="geometry" />
        </mxCell>
        <mxCell id="ZRRWpvvnsxJGegvw8pxf-2" value="Train model/wajah" style="whiteSpace=wrap;html=1;rounded=1;" vertex="1" parent="1">
          <mxGeometry x="270" y="140" width="120" height="60" as="geometry" />
        </mxCell>
        <mxCell id="ZRRWpvvnsxJGegvw8pxf-7" value="" style="edgeStyle=orthogonalEdgeStyle;rounded=0;orthogonalLoop=1;jettySize=auto;html=1;" edge="1" parent="1" source="ZRRWpvvnsxJGegvw8pxf-4" target="ZRRWpvvnsxJGegvw8pxf-6">
          <mxGeometry relative="1" as="geometry" />
        </mxCell>
        <mxCell id="ZRRWpvvnsxJGegvw8pxf-4" value="Mendeteksi wajah" style="whiteSpace=wrap;html=1;rounded=1;" vertex="1" parent="1">
          <mxGeometry x="470" y="140" width="120" height="60" as="geometry" />
        </mxCell>
        <mxCell id="ZRRWpvvnsxJGegvw8pxf-9" value="" style="edgeStyle=orthogonalEdgeStyle;rounded=0;orthogonalLoop=1;jettySize=auto;html=1;" edge="1" parent="1" source="ZRRWpvvnsxJGegvw8pxf-6" target="ZRRWpvvnsxJGegvw8pxf-8">
          <mxGeometry relative="1" as="geometry" />
        </mxCell>
        <mxCell id="ZRRWpvvnsxJGegvw8pxf-6" value="Riwayat presensi" style="whiteSpace=wrap;html=1;rounded=1;" vertex="1" parent="1">
          <mxGeometry x="470" y="280" width="120" height="60" as="geometry" />
        </mxCell>
        <mxCell id="ZRRWpvvnsxJGegvw8pxf-8" value="Selesai" style="whiteSpace=wrap;html=1;rounded=1;" vertex="1" parent="1">
          <mxGeometry x="270" y="280" width="120" height="60" as="geometry" />
        </mxCell>
      </root>
    </mxGraphModel>
  </diagram>
</mxfile>
